# AST/ASF file generated using VICON BodyLanguage
# -----------------------------------------------
:version 1.10
:name VICON
:units
  mass 1.0
  length 0.45
  angle deg
:documentation
   .ast/.asf automatically generated from VICON data using
   VICON BodyBuilder and BodyLanguage model FoxedUp or BRILLIANT.MOD
:root
   order TX TY TZ RX RY RZ
   axis XYZ
   position 0 0 0  
   orientation 0 0 0 
:bonedata
  begin
     id 1 
     name lhipjoint
     direction 0.606768 -0.715223 0.346827 
     length 2.41543 
     axis 0 0 0  XYZ
  end
  begin
     id 2 
     name lfemur
     direction 0.34202 -0.939693 0  
     length 7.2778  
     axis 0 0 20  XYZ
    dof rx ry rz
    limits (-160.0 20.0)
           (-70.0 70.0)
           (-60.0 70.0)
  end
  begin
     id 3 
     name ltibia
     direction 0.34202 -0.939693 0   
     length 7.61811   
     axis 0 0 20   XYZ
    dof rx
    limits (-10.0 170.0)
  end
  begin
     id 4 
     name lfoot
     direction 0.0823924 -0.226371 0.97055   
     length 2.33618   
     axis -90 7.62852e-016 20   XYZ
    dof rx rz
    limits (-45.0 90.0)
           (-70.0 20.0)
  end
  begin
     id 5 
     name ltoes
     direction 1.53554e-011 -4.21934e-011 1   
     length 1.17015   
     axis -90 7.62852e-016 20   XYZ
    dof rx
    limits (-90.0 20.0)
  end
  begin
     id 6 
     name rhipjoint
     direction -0.6077 -0.714582 0.346516   
     length 2.4176  
     axis 0 0 0  XYZ 
  end
  begin
     id 7 
     name rfemur
     direction -0.34202 -0.939693 0   
     length 7.28127   
     axis 0 0 -20   XYZ
    dof rx ry rz
    limits (-160.0 20.0)
           (-70.0 70.0)
           (-70.0 60.0)
  end
  begin
     id 8 
     name rtibia
     direction -0.34202 -0.939693 0   
     length 7.77648   
     axis 0 0 -20   XYZ
    dof rx
    limits (-10.0 170.0)
 end
 begin
     id 9 
     name rfoot
     direction -0.0809463 -0.222398 0.97159   
     length 2.37533  
     axis -90 -7.62852e-016 -20   XYZ
    dof rx rz
    limits (-45.0 90.0)
           (-20.0 70.0)
  end
  begin
     id 10 
     name rtoes
     direction -1.53568e-011 -4.21714e-011 1   
     length 1.18972   
     axis -90 -7.62852e-016 -20   XYZ
    dof rx
    limits (-90.0 20.0)
  end
  begin
     id 11 
     name lowerback
     direction 0.010968 0.991932 -0.126297   
     length 2.21698   
     axis 0 0 0   XYZ
    dof rx ry rz
    limits (-20.0 45.0)
           (-30.0 30.0)
           (-30.0 30.0)
  end
  begin
     id 12 
     name upperback
     direction 0.0167007 0.997503 -0.0686276   
     length 2.22371   
     axis 0 0 0   XYZ
    dof rx ry rz
    limits (-20.0 45.0)
           (-30.0 30.0)
           (-30.0 30.0)
  end
  begin
     id 13 
     name thorax
     direction 0.0111721 0.999885 -0.0102878   
     length 2.25242   
     axis 0 0 0   XYZ
    dof rx ry rz
    limits (-20.0 45.0)
           (-30.0 30.0)
           (-30.0 30.0)
  end
  begin
     id 14 
     name lowerneck
     direction -0.0120265 0.990428 0.137508   
     length 1.57674   
     axis 0 0 0   XYZ
    dof rx ry rz
    limits (-20.0 45.0)
           (-30.0 30.0)
           (-30.0 30.0)
  end
  begin
     id 15 
     name upperneck
     direction 0.0175669 0.998907 0.0433089   
     length 1.5618   
     axis 0 0 0   XYZ
    dof rx ry rz
    limits (-20.0 45.0)
           (-30.0 30.0)
           (-30.0 30.0)
  end
  begin
     id 16
     name head
     direction 0.00754609 0.99997 0.00185367  
     length 1.60579  
     axis 0 0 0   XYZ
    dof rx ry rz
    limits (-20.0 45.0)
           (-30.0 30.0)
           (-30.0 30.0)
  end
  begin
     id 17 
     name lclavicle
     direction 0.885866 0.429166 -0.176231  
     length 3.44967  
     axis 0 0 0   XYZ
    dof ry rz
    limits (-20.0 10.0)
           (0.0 20.0)
  end
  begin
     id 18 
     name lhumerus
     direction 1 -4.48973e-011 -1.90255e-027   
     length 5.20607   
     axis 180 -30 -90   XYZ
    dof rx ry rz
    limits (-60.0 90.0)
           (-90.0 90.0)
           (-90.0 90.0)
  end
  begin
     id 19
     name lradius
     direction 1 -4.48956e-011 9.87925e-027   
     length 3.39961   
     axis 180 -30 -90   XYZ
    dof rx
    limits (-10.0 170.0)
  end
  begin
     id 20
     name lwrist
     direction 1 -4.48985e-011 1.73247e-026   
     length 1.6998   
     axis -9.60847e-015 90 90   XYZ
    dof ry
    limits (-180.0 0.0)
 end
  begin
     id 21 
     name lhand
     direction 1 -4.48798e-011 3.46119e-026   
     length 0.519693   
     axis -2.21073e-014 90 90   XYZ
    dof rx rz
    limits (-90.0 90.0)
           (-45.0 45.0)
  end
  begin
     id 22 
     name lfingers
     direction 1 -4.48938e-011 6.92797e-026   
     length 0.41899   
     axis -4.42155e-014 90 90   XYZ
    dof rx
    limits (0.0 90.0)
  end
  begin
     id 23
     name lthumb
     direction 0.707107 -6.34952e-011 0.707107   
     length 0.601588   
     axis -90 45 6.0103e-014   XYZ
    dof rx rz
    limits (-45.0 45.0)
           (-45.0 45.0)
  end
  begin
     id 24 
     name rclavicle
     direction -0.866736 0.456792 -0.200276   
     length 3.45032  
     axis 0 0 0   XYZ 
    dof ry rz
    limits (-10.0 20.0)
           (-20.0 0.0)
  end
  begin
     id 25 
     name rhumerus
     direction -1 -4.4897e-011 8.65094e-028  
     length 5.32214   
     axis 180 30 90   XYZ
    dof rx ry rz
    limits (-90.0 60.0)
           (-90.0 90.0)
           (-90.0 90.0)
  end
  begin
     id 26 
     name rradius
     direction -1 -4.48987e-011 1.08427e-026   
     length 3.51208   
     axis 180 30 90   XYZ
    dof rx
    limits (-10.0 170.0)
  end
  begin
     id 27 
     name rwrist
     direction -1 -4.48961e-011 1.73222e-026   
     length 1.75604   
     axis -9.60847e-015 -90 -90   XYZ
    dof ry
    limits (-180.0 0.0)
  end
  begin
     id 28
     name rhand
     direction -1 -4.48895e-011 3.46314e-026   
     length 0.586681   
     axis -2.21073e-014 -90 -90   XYZ
    dof rx rz
    limits (-90.0 90.0)
           (-45.0 45.0)
  end
  begin
     id 29
     name rfingers
     direction -1 -4.48968e-011 6.92916e-026   
     length 0.472997   
     axis -4.42155e-014 -90 -90   XYZ
    dof rx
    limits (0.0 90.0)
  end
  begin
     id 30
     name rthumb
     direction -0.707107 -6.34848e-011 0.707107   
     length 0.679133   
     axis -90 -45 -6.0103e-014   XYZ
    dof rx rz
    limits (-45.0 45.0)
           (-45.0 45.0)
  end
:hierarchy
  begin
    root lhipjoint rhipjoint lowerback
    lhipjoint lfemur
    lfemur ltibia
    ltibia lfoot
    lfoot ltoes
    rhipjoint rfemur
    rfemur rtibia
    rtibia rfoot
    rfoot rtoes
    lowerback upperback
    upperback thorax
    thorax lowerneck lclavicle rclavicle
    lowerneck upperneck
    upperneck head
    lclavicle lhumerus
    lhumerus lradius
    lradius lwrist
    lwrist lhand lthumb
    lhand lfingers
    rclavicle rhumerus
    rhumerus rradius
    rradius rwrist
    rwrist rhand rthumb
    rhand rfingers
  end

#!OML:ASF H:\Dans Jumps\Project 1\Capture day 1\Session 1\subject.ASF
:FULLY-SPECIFIED
:DEGREES
67
root 0.544404 17.6479 -14.0594 6.35957 -0.302127 -1.08182
lowerback -5.08585 -0.496136 -0.173447
upperback 3.11429 -0.728241 1.3747
thorax 6.11426 -0.398358 1.45371
lowerneck -12.2354 0.496906 -2.10703
upperneck 36.5245 1.09304 0.643911
head 14.6307 0.260149 0.811392
rclavicle 2.98177e-016 1.98785e-016
rhumerus -22.8264 -10.3467 -84.7693
rradius 24.445
rwrist 32.7396
rhand -19.4246 -26.7004
rfingers 7.12502
rthumb 6.89525 -56.5681
lclavicle 2.98177e-016 1.98785e-016
lhumerus -18.8748 -10.0006 91.9472
lradius 20.4813
lwrist 3.39641
lhand -25.2221 -4.14564
lfingers 7.12502
lthumb 1.29705 25.8302
rfemur -11.1405 -3.43531 19.1789
rtibia 18.0707
rfoot -12.2782 -3.16638
rtoes 12.1416
lfemur -8.26191 5.80959 -17.569
ltibia 13.6758
lfoot -9.19803 5.85474
ltoes 0.875226
68
root 0.544721 17.6476 -14.0596 6.35052 -0.306539 -1.08145
lowerback -5.09161 -0.496174 -0.169549
upperback 3.11758 -0.728668 1.37467
thorax 6.12099 -0.398442 1.45141
lowerneck -12.2341 0.493287 -2.10974
upperneck 36.5488 1.08699 0.64783
head 14.6419 0.257409 0.812773
rclavicle 1.98785e-016 -4.77083e-015
rhumerus -22.8124 -10.3358 -84.7854
rradius 24.4528
rwrist 32.7313
rhand -19.4394 -26.6906
rfingers 7.12502
rthumb 6.88104 -56.5588
lclavicle 1.98785e-016 -4.77083e-015
lhumerus -18.8421 -9.90896 91.9061
lradius 20.423
lwrist 3.30978
lhand -25.2352 -4.14879
lfingers 7.12502
lthumb 1.28441 25.8271
rfemur -11.1345 -3.43496 19.1769
rtibia 18.0771
rfoot -12.2858 -3.16423
rtoes 12.1405
lfemur -8.25665 5.81947 -17.5699
ltibia 13.6855
lfoot -9.20391 5.85058
ltoes 0.865535
69
root 0.54506 17.6474 -14.0599 6.34177 -0.312737 -1.083
lowerback -5.09636 -0.494936 -0.163543
upperback 3.12038 -0.727549 1.37477
thorax 6.12657 -0.397671 1.44824
lowerneck -12.2291 0.489535 -2.10998
upperneck 36.5704 1.08035 0.650538
head 14.6511 0.254641 0.813068
rclavicle -1.00386e-014 -4.77083e-015
rhumerus -22.7994 -10.3312 -84.7991
rradius 24.4576
rwrist 32.7256
rhand -19.4581 -26.67
rfingers 7.12502
rthumb 6.86292 -56.5387
lclavicle -1.00386e-014 -4.77083e-015
lhumerus -18.8119 -9.81942 91.8653
lradius 20.3637
lwrist 3.23154
lhand -25.2489 -4.15863
lfingers 7.12502
lthumb 1.27115 25.8173
rfemur -11.1298 -3.43471 19.177
rtibia 18.0838
rfoot -12.2931 -3.16007
rtoes 12.1359
lfemur -8.25179 5.8274 -17.5688
ltibia 13.6953
lfoot -9.20922 5.84969
ltoes 0.86305
70
root 0.545498 17.6471 -14.0601 6.33221 -0.323634 -1.08375
lowerback -5.10491 -0.493635 -0.156349
upperback 3.12476 -0.726424 1.37384
thorax 6.13596 -0.396843 1.44329
lowerneck -12.2185 0.48829 -2.10856
upperneck 36.5881 1.07759 0.650991
head 14.6571 0.253495 0.812657
rclavicle -5.01931e-015 -1.98785e-016
rhumerus -22.787 -10.318 -84.8155
rradius 24.4642
rwrist 32.7103
rhand -19.4746 -26.6526
rfingers 7.12502
rthumb 6.84702 -56.5218
lclavicle -5.01931e-015 -1.98785e-016
lhumerus -18.7822 -9.72254 91.8224
lradius 20.3013
lwrist 3.15599
lhand -25.2568 -4.1603
lfingers 7.12502
lthumb 1.26355 25.8157
rfemur -11.1252 -3.43659 19.1756
rtibia 18.0911
rfoot -12.2989 -3.15012
rtoes 12.1193
lfemur -8.24514 5.83516 -17.5693
ltibia 13.7053
lfoot -9.21468 5.85403
ltoes 0.864226
71
root 0.546117 17.6467 -14.06 6.31668 -0.334711 -1.08334
lowerback -5.10882 -0.492463 -0.149298
upperback 3.13158 -0.725462 1.37292
thorax 6.14527 -0.396111 1.43846
lowerneck -12.2086 0.487894 -2.10742
upperneck 36.6036 1.07597 0.652014
head 14.6622 0.252901 0.812697
rclavicle -9.93923e-016 -4.57205e-015
rhumerus -22.7741 -10.3096 -84.8289
rradius 24.469
rwrist 32.6975
rhand -19.4928 -26.6325
rfingers 7.12502
rthumb 6.82946 -56.5024
lclavicle -9.93923e-016 -4.57205e-015
lhumerus -18.7537 -9.61901 91.7801
lradius 20.2363
lwrist 3.07916
lhand -25.2647 -4.17672
lfingers 7.12502
lthumb 1.25589 25.7993
rfemur -11.1133 -3.43897 19.1719
rtibia 18.0983
rfoot -12.3039 -3.13947
rtoes 12.0989
lfemur -8.23121 5.83508 -17.5708
ltibia 13.7166
lfoot -9.22136 5.86648
ltoes 0.869461
72
root 0.546737 17.6462 -14.0601 6.30123 -0.346678 -1.08412
lowerback -5.11095 -0.490886 -0.141691
upperback 3.13898 -0.724051 1.3729
thorax 6.15417 -0.395155 1.4343
lowerneck -12.196 0.487296 -2.10881
upperneck 36.6138 1.07396 0.65492
head 14.6641 0.252112 0.81383
rclavicle 9.64106e-015 -8.94531e-015
rhumerus -22.76 -10.3061 -84.8401
rradius 24.4733
rwrist 32.6872
rhand -19.5074 -26.6188
rfingers 7.12502
rthumb 6.81534 -56.4891
lclavicle 9.64106e-015 -8.94531e-015
lhumerus -18.7265 -9.51397 91.7393
lradius 20.1683
lwrist 3.00102
lhand -25.2698 -4.19115
lfingers 7.12502
lthumb 1.25096 25.7849
rfemur -11.1026 -3.43692 19.1694
rtibia 18.1056
rfoot -12.3051 -3.13254
rtoes 12.0752
lfemur -8.21852 5.83569 -17.5711
ltibia 13.7282
lfoot -9.22709 5.87901
ltoes 0.867368
73
root 0.547323 17.6458 -14.0604 6.28734 -0.35706 -1.08636
lowerback -5.11272 -0.489108 -0.134178
upperback 3.14712 -0.722444 1.37415
thorax 6.16365 -0.394141 1.43154
lowerneck -12.1875 0.4863 -2.10965
upperneck 36.6217 1.07168 0.65682
head 14.6659 0.251185 0.814421
rclavicle 3.77691e-015 -1.0138e-014
rhumerus -22.7437 -10.31 -84.8489
rradius 24.4786
rwrist 32.6769
rhand -19.5196 -26.6135
rfingers 7.12502
rthumb 6.80362 -56.4842
lclavicle 3.77691e-015 -1.0138e-014
lhumerus -18.6995 -9.4085 91.7007
lradius 20.0986
lwrist 2.92042
lhand -25.2736 -4.19431
lfingers 7.12502
lthumb 1.24735 25.7818
rfemur -11.0932 -3.43189 19.1689
rtibia 18.1121
rfoot -12.3046 -3.12984
rtoes 12.0498
lfemur -8.20911 5.83603 -17.5697
ltibia 13.7409
lfoot -9.23191 5.89011
ltoes 0.865134
74
root 0.547833 17.6454 -14.0609 6.27677 -0.363794 -1.08825
lowerback -5.11297 -0.487959 -0.129834
upperback 3.15527 -0.721494 1.37665
thorax 6.17235 -0.393611 1.43181
lowerneck -12.1851 0.484448 -2.10864
upperneck 36.6279 1.06857 0.656559
head 14.6683 0.249882 0.813687
rclavicle 1.02374e-014 5.96354e-016
rhumerus -22.7226 -10.3234 -84.8546
rradius 24.481
rwrist 32.672
rhand -19.5298 -26.6105
rfingers 7.12502
rthumb 6.79376 -56.4815
lclavicle 1.02374e-014 5.96354e-016
lhumerus -18.673 -9.30271 91.6643
lradius 20.0282
lwrist 2.83746
lhand -25.2856 -4.206
lfingers 7.12502
lthumb 1.23574 25.7702
rfemur -11.0873 -3.42317 19.1686
rtibia 18.1173
rfoot -12.3023 -3.13509
rtoes 12.0262
lfemur -8.20566 5.83704 -17.5685
ltibia 13.7545
lfoot -9.23612 5.89579
ltoes 0.863806
75
root 0.548252 17.6452 -14.0619 6.27083 -0.367905 -1.09117
lowerback -5.11017 -0.486189 -0.126106
upperback 3.16086 -0.719635 1.37954
thorax 6.17658 -0.392641 1.43294
lowerneck -12.1844 0.48147 -2.10632
upperneck 36.6316 1.06331 0.656767
head 14.6701 0.247941 0.812573
rclavicle 3.72721e-015 5.76476e-015
rhumerus -22.7033 -10.3444 -84.8583
rradius 24.4857
rwrist 32.6689
rhand -19.5352 -26.6068
rfingers 7.12502
rthumb 6.78852 -56.478
lclavicle 3.72721e-015 5.76476e-015
lhumerus -18.65 -9.19908 91.6297
lradius 19.9591
lwrist 2.75121
lhand -25.2963 -4.21016
lfingers 7.12502
lthumb 1.22536 25.7661
rfemur -11.0869 -3.41379 19.1702
rtibia 18.121
rfoot -12.2985 -3.1424
rtoes 12.009
lfemur -8.20984 5.83938 -17.5663
ltibia 13.769
lfoot -9.23905 5.89669
ltoes 0.869048
76
root 0.548616 17.6452 -14.063 6.26965 -0.36975 -1.09283
lowerback -5.10824 -0.485404 -0.124876
upperback 3.16421 -0.718848 1.38195
thorax 6.17902 -0.39228 1.43487
lowerneck -12.1835 0.479511 -2.09985
upperneck 36.6345 1.05917 0.654759
head 14.6714 0.246767 0.809967
rclavicle 2.33572e-015 1.72943e-014
rhumerus -22.6851 -10.3637 -84.863
rradius 24.4909
rwrist 32.6631
rhand -19.5342 -26.6065
rfingers 7.12502
rthumb 6.78952 -56.4777
lclavicle 2.33572e-015 1.72943e-014
lhumerus -18.6312 -9.09328 91.5951
lradius 19.8902
lwrist 2.65916
lhand -25.318 -4.22628
lfingers 7.12502
lthumb 1.20444 25.7501
rfemur -11.092 -3.40457 19.1711
rtibia 18.124
rfoot -12.2945 -3.15114
rtoes 11.9976
lfemur -8.22038 5.84077 -17.5656
ltibia 13.7841
lfoot -9.24198 5.89506
ltoes 0.87704
77
root 0.54896 17.6451 -14.0643 6.26885 -0.369236 -1.09505
lowerback -5.10344 -0.484344 -0.12393
upperback 3.16571 -0.71762 1.38423
thorax 6.17784 -0.391691 1.43686
lowerneck -12.1803 0.476873 -2.09228
upperneck 36.6364 1.05262 0.655538
head 14.6716 0.245114 0.807917
rclavicle -4.91992e-015 4.17448e-015
rhumerus -22.6718 -10.3854 -84.8661
rradius 24.496
rwrist 32.6585
rhand -19.5314 -26.6065
rfingers 7.12502
rthumb 6.79214 -56.4776
lclavicle -4.91992e-015 4.17448e-015
lhumerus -18.618 -8.99227 91.5627
lradius 19.8226
lwrist 2.5687
lhand -25.3392 -4.2485
lfingers 7.12502
lthumb 1.18392 25.728
rfemur -11.0974 -3.39435 19.1725
rtibia 18.1274
rfoot -12.2914 -3.1621
rtoes 11.9929
lfemur -8.23205 5.84155 -17.5642
ltibia 13.7991
lfoot -9.24521 5.89145
ltoes 0.883791
